<?xml version="1.0" encoding="UTF-8"?>
<svg version="1.1" xmlns="http://www.w3.org/2000/svg" width="372" height="372">
<path d="M0 0 C0.87675476 2.2298584 0.87675476 2.2298584 1.76831055 5.22460938 C2.10593918 6.34508667 2.44356781 7.46556396 2.79142761 8.61999512 C3.15287369 9.84883423 3.51431976 11.07767334 3.88671875 12.34375 C4.27003653 13.62782973 4.65398435 14.91172155 5.03852844 16.19543457 C5.84934186 18.90788059 6.65505214 21.62177102 7.45678711 24.33691406 C8.46087098 27.73726302 9.47304439 31.13512181 10.48870659 34.5320282 C14.7706282 48.85653136 18.96501015 63.20040889 22.8971405 77.62585449 C23.16158463 78.58785767 23.42602875 79.54986084 23.69848633 80.54101562 C23.92723953 81.38265259 24.15599274 82.22428955 24.39167786 83.09143066 C24.83550205 84.98849511 24.83550205 84.98849511 26 86 C26.15331787 85.41476563 26.30663574 84.82953125 26.46459961 84.2265625 C31.34262915 65.77420794 36.80244142 47.50446165 42.35060501 29.24438477 C42.93881398 27.30817478 43.5263185 25.37175205 44.11373901 23.43530273 C45.22823563 19.7646835 46.345793 16.09501437 47.46484375 12.42578125 C47.80620361 11.30303299 48.14756348 10.18028473 48.49926758 9.02351379 C48.81395996 7.99521957 49.12865234 6.96692535 49.45288086 5.9074707 C49.72853378 5.00454788 50.00418671 4.10162506 50.28819275 3.17134094 C51 1 51 1 52 -1 C53.89762221 -0.76396189 55.79302186 -0.51007037 57.6875 -0.25 C58.74324219 -0.11078125 59.79898438 0.0284375 60.88671875 0.171875 C66.73476768 1.16875496 72.36450349 3.18940726 78 5 C71.28660558 25.52442509 64.32547379 45.95366702 57.125 66.3125 C56.76528107 67.3327124 56.40556213 68.3529248 56.03494263 69.40405273 C52.69606789 78.86494389 49.34608663 88.32472826 45.71875 97.6796875 C45.27724609 98.8229248 44.83574219 99.96616211 44.38085938 101.14404297 C42.41624215 105.2073549 39.88830002 107.77177327 36 110 C35.08541016 110.55107422 35.08541016 110.55107422 34.15234375 111.11328125 C29.24428317 113.13529532 22.85585927 112.90727659 17.8359375 111.3125 C10.95850524 107.67685299 7.44651506 101.68081547 4.8828125 94.63671875 C4.59737579 93.87824142 4.31193909 93.1197641 4.01785278 92.33830261 C-0.69722214 79.63966668 -5.01093307 66.78874009 -9.38757324 53.97039795 C-10.37172615 51.09051664 -11.35912994 48.21175513 -12.34669685 45.3330431 C-13.54732064 41.83307748 -14.74653289 38.3326289 -15.9453125 34.83203125 C-16.16498814 34.19060495 -16.38466377 33.54917866 -16.61099625 32.8883152 C-19.78746923 23.60756469 -22.90987152 14.30976227 -26 5 C-22.9380537 4.18539866 -19.87541082 3.37346763 -16.8125 2.5625 C-15.51602539 2.21735352 -15.51602539 2.21735352 -14.19335938 1.86523438 C-2.46875 -1.234375 -2.46875 -1.234375 0 0 Z " fill="#333333" transform="translate(167,21)"/>
<path d="M0 0 C5.82192971 3.49754346 9.45883003 7.97530667 11.7734375 14.38671875 C12.36765503 16.01528809 12.36765503 16.01528809 12.97387695 17.67675781 C13.39886475 18.87526367 13.82385254 20.07376953 14.26171875 21.30859375 C14.72502071 22.59490094 15.18882432 23.88102753 15.65307617 25.16699219 C25.29949159 52.00659448 34.63012154 78.97696703 43.57421875 106.05859375 C34.94045902 108.91936085 26.59434348 110.8842471 17.57421875 112.05859375 C12.18255395 96.53155908 7.56096631 80.77889714 2.93469238 65.01165771 C2.1150179 62.22147004 1.29170141 59.43236267 0.4683342 56.64326286 C-0.33257367 53.92917478 -1.13175996 51.21458225 -1.93038177 48.49982071 C-2.48915512 46.6009108 -3.04891601 44.70229158 -3.60870361 42.80368042 C-5.33581411 36.91300178 -6.99800054 31.02922913 -8.42578125 25.05859375 C-11.1820881 33.04435964 -13.55669319 41.13745037 -15.94134712 49.23968506 C-16.94999616 52.6636976 -17.96437039 56.08600527 -18.97841549 59.50842285 C-20.86153974 65.86403462 -22.74247463 72.22026819 -24.61303711 78.57958984 C-25.91953243 83.02044902 -27.23353827 87.45902334 -28.55265617 91.89614868 C-29.05344812 93.58588155 -29.55140741 95.27645656 -30.0465107 96.96786499 C-30.73554667 99.32060247 -31.43409834 101.67030904 -32.13500977 104.01953125 C-32.33817307 104.72180344 -32.54133636 105.42407562 -32.75065613 106.14762878 C-33.25018784 107.80352175 -33.83047535 109.43467123 -34.42578125 111.05859375 C-37.08354184 112.38747405 -38.24118787 111.814187 -41.109375 111.1328125 C-42.03685547 110.91302734 -42.96433594 110.69324219 -43.91992188 110.46679688 C-44.89123047 110.22896484 -45.86253906 109.99113281 -46.86328125 109.74609375 C-48.31444336 109.40674805 -48.31444336 109.40674805 -49.79492188 109.06054688 C-57.03973087 107.31596067 -57.03973087 107.31596067 -60.42578125 105.05859375 C-41.03116459 48.48395027 -41.03116459 48.48395027 -33.7305603 28.06286621 C-33.19846635 26.57241396 -32.66914063 25.08097024 -32.14273071 23.58850098 C-31.4224181 21.54942107 -30.69149953 19.51448535 -29.95703125 17.48046875 C-29.56064453 16.3728418 -29.16425781 15.26521484 -28.75585938 14.12402344 C-26.09178325 7.98412994 -22.6963174 3.98346109 -17.42578125 0.05859375 C-11.92870855 -1.77376382 -5.4593088 -2.11866895 0 0 Z " fill="#323232" transform="translate(201.42578125,245.94140625)"/>
<path d="M0 0 C6.95774137 0.59452835 13.20541122 2.980132 19.75390625 5.3046875 C20.99613953 5.73999283 22.2383728 6.17529816 23.51824951 6.62379456 C26.85041295 7.7919799 30.17958092 8.96846747 33.50790787 10.14753342 C35.56308921 10.87520862 37.61888125 11.60113038 39.67489624 12.32644653 C46.39691239 14.69793578 53.11676413 17.07540983 59.83398438 19.46044922 C64.91986862 21.26544311 70.01032432 23.05630802 75.10670471 24.8314209 C78.51313765 26.02085837 81.9125216 27.22973915 85.3125 28.4375 C86.45082275 28.8298584 87.58914551 29.2222168 88.76196289 29.62646484 C96.0609585 32.26152694 101.62976298 35.28662866 105.875 41.9375 C108.24035667 48.37652649 108.47879881 53.65277275 106 60 C101.88926092 68.63255207 93.22844655 71.28992843 84.70947266 74.33666992 C82.36341509 75.14166836 80.01479929 75.93923862 77.6640625 76.73046875 C76.37756737 77.16951785 75.09130764 77.60925727 73.80526733 78.04963684 C70.42828277 79.20427435 67.04861592 80.35083487 63.66815186 81.49523926 C58.34393773 83.29918957 53.02389358 85.11542637 47.70366669 86.93109512 C46.3879295 87.37988202 45.07203735 87.82821489 43.75598907 88.27608871 C36.43547369 90.76768092 29.12940615 93.29361473 21.85058594 95.90478516 C21.19671843 96.13934701 20.54285091 96.37390886 19.86916924 96.61557865 C16.75140936 97.735826 13.63602908 98.86213531 10.52261353 99.99443054 C9.42895477 100.38983536 8.33529602 100.78524017 7.20849609 101.19262695 C6.24720795 101.54275345 5.2859198 101.89287994 4.29550171 102.25361633 C2 103 2 103 0 103 C-0.84516531 99.79466559 -1.67397973 96.58531662 -2.5 93.375 C-2.73847656 92.47136719 -2.97695313 91.56773437 -3.22265625 90.63671875 C-3.44824219 89.75371094 -3.67382812 88.87070313 -3.90625 87.9609375 C-4.11572266 87.15446777 -4.32519531 86.34799805 -4.54101562 85.51708984 C-5.06593296 82.63842082 -5.02947521 79.92083698 -5 77 C5.04893886 74.03536388 15.09797252 71.07104935 25.1471262 68.10714149 C29.81370668 66.73076449 34.48025485 65.35427815 39.14672852 63.97753906 C43.6529632 62.64807934 48.15928361 61.31891059 52.66566277 59.98994064 C54.38200859 59.48372054 56.09832388 58.97739689 57.81460762 58.47096634 C60.22471216 57.7598269 62.63492656 57.04906093 65.04516602 56.33837891 C65.74935669 56.13050247 66.45354736 55.92262604 67.17907715 55.70845032 C71.44675658 54.45059675 75.72050978 53.2168711 80 52 C77.2965356 50.57337172 74.68540249 49.51002054 71.75512695 48.64648438 C70.91986984 48.39828445 70.08461273 48.15008453 69.2240448 47.8943634 C68.32124283 47.63016098 67.41844086 47.36595856 66.48828125 47.09375 C65.06416679 46.67200752 65.06416679 46.67200752 63.61128235 46.241745 C61.57142482 45.63803284 59.53107817 45.03597138 57.49029541 44.43539429 C53.23319091 43.1823019 48.97866665 41.92056229 44.72399902 40.65922546 C42.57934238 40.0234996 40.43456657 39.38817564 38.28967285 38.75325012 C29.44001464 36.1334061 20.59519967 33.49799279 11.75961304 30.83105469 C10.33928524 30.40284658 8.91857024 29.97592066 7.49746704 29.55029297 C5.55208727 28.9675528 3.60803186 28.38039678 1.6640625 27.79296875 C0.58592285 27.4683667 -0.4922168 27.14376465 -1.60302734 26.80932617 C-4 26 -4 26 -5 25 C-5.08430368 16.31672091 -2.57569009 8.20626843 0 0 Z " fill="#333333" transform="translate(30,138)"/>
<path d="M0 0 C2.08533993 1.0574098 4.15849108 2.13665056 6.23234558 3.21638489 C7.70706359 3.96110224 9.18307595 4.7032616 10.6603241 5.44294739 C13.59036829 6.91270071 16.5147149 8.39285151 19.43449402 9.88288879 C24.53349164 12.47856379 29.6879773 14.95193876 34.85734558 17.40388489 C36.15466614 18.02722717 36.15466614 18.02722717 37.47819519 18.66316223 C42.62622025 21.1309325 47.79770593 23.54184364 52.99060059 25.91337585 C56.14446316 27.35540579 59.29334185 28.80815578 62.4420929 30.26130676 C64.00284081 30.97779928 65.56604722 31.68896192 67.13172913 32.39460754 C69.32510978 33.38345771 71.50966889 34.38978375 73.69328308 35.39997864 C74.35875656 35.69436325 75.02423004 35.98874786 75.70986938 36.29205322 C80.12793909 38.36513084 80.12793909 38.36513084 81.47795105 40.85676575 C81.40222575 43.52465066 80.62217156 44.89645898 79.21672058 47.16169739 C78.73074402 47.9518927 78.24476746 48.74208801 77.74406433 49.55622864 C77.22457214 50.3722052 76.70507996 51.18818176 76.16984558 52.02888489 C75.66582214 52.85259583 75.16179871 53.67630676 74.64250183 54.52497864 C70.83911641 60.624371 70.83911641 60.624371 67.41984558 62.90388489 C55.18942577 56.58025968 43.00651955 50.18387984 30.93424988 43.56282043 C22.42724133 38.89783379 13.88533356 34.2990141 5.33659363 29.71101379 C-0.66210773 26.48826482 -6.63948642 23.23250454 -12.58015442 19.90388489 C-12.08128723 20.78044739 -11.58242004 21.65700989 -11.06843567 22.56013489 C-3.46837885 35.96689544 3.83008853 49.53535282 11.14299011 63.10017395 C12.83811735 66.2437944 14.53515414 69.3863785 16.23234558 72.52888489 C16.77101257 73.52951965 17.30967957 74.53015442 17.8646698 75.56111145 C20.19540825 79.87452373 22.54408181 84.1652005 25.04875183 88.38044739 C25.43377869 89.03061829 25.81880554 89.68078918 26.21549988 90.35066223 C27.20631178 92.00597477 28.21459132 93.650799 29.22453308 95.29450989 C30.41984558 97.90388489 30.41984558 97.90388489 30.23796082 99.88996887 C29.16557186 102.52981862 27.93634635 103.24858945 25.52531433 104.73591614 C24.73447449 105.22382629 23.94363464 105.71173645 23.12882996 106.21443176 C22.29674011 106.71007629 21.46465027 107.20572083 20.60734558 107.71638489 C19.37661316 108.48885559 19.37661316 108.48885559 18.12101746 109.27693176 C17.32631042 109.75839661 16.53160339 110.23986145 15.71281433 110.73591614 C14.98602478 111.17653381 14.25923523 111.61715149 13.51042175 112.07112122 C10.93605497 113.09659886 9.97815342 112.8900623 7.41984558 111.90388489 C6.25357056 110.38188171 6.25357056 110.38188171 5.30436707 108.39167786 C4.93935593 107.64429352 4.57434479 106.89690918 4.19827271 106.12687683 C3.81635269 105.30821136 3.43443268 104.4895459 3.04093933 103.64607239 C2.63239212 102.79961151 2.22384491 101.95315063 1.80291748 101.08103943 C0.47419906 98.31991187 -0.83425206 95.5496893 -2.14265442 92.77888489 C-3.05218436 90.87918425 -3.96299442 88.98009598 -4.87507629 87.08161926 C-7.07778264 82.48949887 -9.26541796 77.89040841 -11.44764709 73.28852844 C-13.38615764 69.20673879 -15.34642149 65.13549752 -17.30500793 61.06330872 C-18.55909026 58.44781594 -19.80057604 55.82661495 -21.04109192 53.20466614 C-22.93451096 49.21816117 -24.89166215 45.26727487 -26.86921692 41.32185364 C-27.70259583 39.63962708 -27.70259583 39.63962708 -28.55281067 37.92341614 C-29.61815262 35.77510246 -30.69542077 33.63264181 -31.78718567 31.49763489 C-35.46745415 24.02856454 -38.08809411 16.8085017 -35.39265442 8.59138489 C-32.87162229 2.99784485 -29.73654252 -0.83151291 -24.04304504 -3.28727722 C-15.38220872 -6.13158241 -7.8798892 -3.87594822 0 0 Z " fill="#323232" transform="translate(262.5801544189453,227.0961151123047)"/>
<path d="M0 0 C3.65314199 0.44641325 6.16009073 1.4803656 9.20703125 3.50390625 C9.95791016 3.99697266 10.70878906 4.49003906 11.48242188 4.99804688 C12.25134766 5.51431641 13.02027344 6.03058594 13.8125 6.5625 C14.60076172 7.08263672 15.38902344 7.60277344 16.20117188 8.13867188 C18.13892853 9.41876566 20.07152677 10.7059808 22 12 C21.3363488 15.1849799 20.20852877 17.77188376 18.69921875 20.6484375 C17.98487671 22.01536743 17.98487671 22.01536743 17.25610352 23.40991211 C16.73846436 24.38839111 16.2208252 25.36687012 15.6875 26.375 C14.88107056 27.90942749 14.88107056 27.90942749 14.05834961 29.47485352 C9.4865994 38.14472513 4.81028046 46.75589741 0.09375 55.34765625 C-2.11158399 59.36684902 -4.296079 63.39665033 -6.46875 67.43359375 C-7.04761963 68.50810791 -7.62648926 69.58262207 -8.22290039 70.68969727 C-9.33348937 72.75289739 -10.44217391 74.81712425 -11.54858398 76.88256836 C-14.51624363 82.38869816 -17.62109799 87.73563334 -21 93 C-20.35603271 92.64736084 -19.71206543 92.29472168 -19.04858398 91.93139648 C-11.74040233 87.93641346 -4.40669544 83.99081485 2.9375 80.0625 C5.4076241 78.74101998 7.87766096 77.41937701 10.34765625 76.09765625 C10.97595337 75.76150299 11.60425049 75.42534973 12.25158691 75.07901001 C16.06507818 73.03799765 19.87602296 70.99232637 23.68464661 68.94224548 C26.15512564 67.61251056 28.6263928 66.28424379 31.09768677 64.95602417 C32.8105815 64.03465098 34.5223781 63.11123718 36.23413086 62.18774414 C44.08345498 57.9710484 52.01230886 53.94661218 60 50 C63.6147711 55.04967008 67.17432018 60.12885719 70.5 65.375 C71.0053125 66.16648437 71.510625 66.95796875 72.03125 67.7734375 C73 70 73 70 72.91259766 71.94750977 C71.52302647 75.07274385 69.42581008 75.64091849 66.3671875 77.06640625 C65.1810083 77.62827637 63.9948291 78.19014648 62.77270508 78.76904297 C61.47356912 79.36707724 60.17433148 79.96489065 58.875 80.5625 C57.53799747 81.19016903 56.20165847 81.81925328 54.8659668 82.44970703 C52.17047698 83.71993853 49.47178061 84.98291036 46.77001953 86.23974609 C42.64971036 88.15893763 38.55294913 90.12542363 34.45874023 92.09960938 C22.10517047 98.05357639 9.68438725 103.8674682 -2.72924805 109.69482422 C-3.44580566 110.03137527 -4.16236328 110.36792633 -4.90063477 110.7146759 C-6.25027851 111.34849476 -7.60012039 111.98189196 -8.95019531 112.61479187 C-11.40991561 113.76999943 -13.85935558 114.92646033 -16.26782227 116.18579102 C-20.96145704 118.3920309 -27.44424943 117.63256949 -32.3515625 116.41796875 C-38.11665595 113.98060299 -41.43965772 109.60459805 -44 104 C-47.74655796 91.39794142 -38.60508128 78.8649837 -33.20651245 67.89202881 C-31.05762023 63.5239634 -28.9204999 59.1501371 -26.78125 54.77734375 C-26.36205795 53.92138611 -25.94286591 53.06542847 -25.51097107 52.18353271 C-22.28632691 45.59647897 -19.09434069 38.99486719 -15.9375 32.375 C-15.51992432 31.49996826 -15.10234863 30.62493652 -14.67211914 29.72338867 C-12.49151352 25.14718814 -10.32091173 20.56629018 -8.15234375 15.984375 C-7.68642822 15.00162598 -7.2205127 14.01887695 -6.74047852 13.00634766 C-5.85221303 11.13198518 -4.96587781 9.25670632 -4.08178711 7.38037109 C-3.69128174 6.55617676 -3.30077637 5.73198242 -2.8984375 4.8828125 C-2.55474121 4.15465332 -2.21104492 3.42649414 -1.85693359 2.67626953 C-1 1 -1 1 0 0 Z " fill="#323232" transform="translate(271,38)"/>
<path d="M0 0 C3 1 3 1 4.78662109 4.06567383 C5.45947852 5.4409979 6.12090807 6.82194686 6.7734375 8.20703125 C7.13344849 8.95085556 7.49345947 9.69467987 7.86437988 10.46104431 C9.0446911 12.9068127 10.2099974 15.35940734 11.375 17.8125 C12.18957578 19.50912107 13.00484794 21.20540796 13.82080078 22.90136719 C19.11410552 33.9293807 24.31816693 44.99970006 29.42041016 56.11743164 C32.02161986 61.78087236 34.67357825 67.41005704 37.4296875 73 C37.98672363 74.13469727 38.54375977 75.26939453 39.11767578 76.43847656 C40.17111844 78.5756133 41.23393618 80.70816635 42.30810547 82.83496094 C45.39056184 89.10118001 47.68988764 94.42421461 46.6171875 101.5390625 C44.20463245 108.31961195 41.28658842 113.12351041 34.625 116.375 C27.69207663 119.09334557 22.924377 118.16503164 16.25415039 115.43164062 C9.74689007 112.56881712 3.38381822 109.40105335 -2.9942627 106.2633667 C-6.48014124 104.54859413 -9.96989842 102.84178658 -13.45950317 101.13461304 C-15.20258845 100.28182274 -16.94548924 99.42865524 -18.6882019 98.57510376 C-25.69432288 95.14459572 -32.71554686 91.74709624 -39.75 88.375 C-40.72396729 87.90650635 -41.69793457 87.4380127 -42.70141602 86.95532227 C-47.35137487 84.72390057 -52.01368401 82.52621901 -56.703125 80.37890625 C-57.5993457 79.96527832 -58.49556641 79.55165039 -59.41894531 79.12548828 C-61.08598595 78.35819546 -62.75698718 77.59942363 -64.43261719 76.85107422 C-66.32590654 75.97779977 -68.16936006 74.99795302 -70 74 C-71 71 -71 71 -69.5234375 67.85546875 C-68.8178533 66.6266872 -68.10120349 65.40420935 -67.375 64.1875 C-66.85873047 63.28161133 -66.85873047 63.28161133 -66.33203125 62.35742188 C-63.90993075 58.205888 -61.15998568 54.62012394 -58 51 C-53.78882276 52.57831601 -49.84883337 54.57167863 -45.8828125 56.67578125 C-45.19724777 57.03738846 -44.51168304 57.39899567 -43.80534363 57.77156067 C-41.57689404 58.94875148 -39.35078195 60.13027397 -37.125 61.3125 C-36.3645639 61.71539246 -35.60412781 62.11828491 -34.82064819 62.53338623 C-23.4114383 68.58145764 -12.12270374 74.80480359 -0.91015625 81.2109375 C10.20198032 87.86141228 10.20198032 87.86141228 22 93 C21.67016113 92.42072754 21.34032227 91.84145508 21.00048828 91.24462891 C12.97575309 77.11572505 5.22586463 62.86565637 -2.34509277 48.48937988 C-8.4371256 36.92156593 -14.63141817 25.41855862 -21 14 C-17.59850017 10.18857583 -13.74000728 7.85039217 -9.375 5.3125 C-8.694375 4.90966797 -8.01375 4.50683594 -7.3125 4.09179688 C-2.46883585 1.23441793 -2.46883585 1.23441793 0 0 Z " fill="#333333" transform="translate(113,38)"/>
<path d="M0 0 C4.57318374 4.27493263 6.92036635 8.8998917 8 15 C7.62339148 24.07951738 2.88551971 32.30882684 -1 40.3125 C-1.70985772 41.79572492 -2.41882318 43.27937716 -3.12695312 44.76342773 C-5.40084187 49.517293 -7.69875868 54.25932891 -10 59 C-10.7955966 60.64126456 -11.59116941 62.28254065 -12.38671875 63.92382812 C-15.48480126 70.31129374 -18.58548469 76.69744814 -21.70703125 83.07348633 C-22.06224854 83.79980759 -22.41746582 84.52612885 -22.78344727 85.27445984 C-23.48332078 86.70479511 -24.18430742 88.13458632 -24.88647461 89.563797 C-26.7127405 93.29672043 -28.48766139 97.04628993 -30.203125 100.83154297 C-30.56233032 101.61794662 -30.92153564 102.40435028 -31.29162598 103.21458435 C-31.97832061 104.72406369 -32.65639527 106.2375028 -33.32458496 107.75526428 C-34.13915164 109.54080586 -35.06152682 111.27635686 -36 113 C-39 114 -39 114 -42.109375 112.5234375 C-43.32902498 111.81774482 -44.54238607 111.10109698 -45.75 110.375 C-46.34554687 110.03082031 -46.94109375 109.68664062 -47.5546875 109.33203125 C-51.88697252 106.79079913 -55.94566192 103.96278552 -60 101 C-53.06553708 86.73228716 -45.51487989 72.79384333 -37.98797607 58.83343506 C-36.3661354 55.82370675 -34.74766097 52.81217005 -33.12890625 49.80078125 C-27.77903539 39.85260538 -22.4188533 29.91081352 -17 20 C-17.8765625 20.49886719 -18.753125 20.99773437 -19.65625 21.51171875 C-30.9986147 27.94130133 -42.4597499 34.14387746 -53.93066406 40.34033203 C-58.79155642 42.9687401 -63.64661509 45.60776215 -68.5 48.25 C-69.40169922 48.73847412 -70.30339844 49.22694824 -71.23242188 49.73022461 C-75.45948328 52.02839893 -79.65189832 54.36349466 -83.7890625 56.8203125 C-84.52576172 57.25311523 -85.26246094 57.68591797 -86.02148438 58.13183594 C-87.38266607 58.93628547 -88.73620402 59.75387322 -90.08007812 60.58691406 C-94.3573483 63.10554499 -94.3573483 63.10554499 -97.140625 62.6484375 C-99.87570387 60.22364069 -101.7167087 57.32870996 -103.625 54.25 C-104.01945312 53.6415625 -104.41390625 53.033125 -104.8203125 52.40625 C-107.15366625 48.71702854 -108.79254807 45.23257343 -110 41 C-109.1234375 40.56171875 -108.246875 40.1234375 -107.34375 39.671875 C-106.74618896 39.3730542 -106.14862793 39.0742334 -105.53295898 38.76635742 C-104.14197502 38.07094896 -102.75085522 37.37581214 -101.35961914 36.6809082 C-97.03735939 34.52138888 -92.71818779 32.3559093 -88.40234375 30.18359375 C-76.67863818 24.29012888 -64.90745058 18.51601816 -53.0546875 12.88671875 C-48.59092075 10.76519914 -44.14043149 8.61728038 -39.6953125 6.45703125 C-38.45486603 5.85532131 -37.21438767 5.25367709 -35.97387695 4.65209961 C-33.57473669 3.48862843 -31.1778696 2.32082709 -28.78198242 1.15063477 C-27.69506104 0.62397217 -26.60813965 0.09730957 -25.48828125 -0.4453125 C-24.52446533 -0.91469238 -23.56064941 -1.38407227 -22.56762695 -1.86767578 C-14.5453375 -5.40550772 -7.42561548 -4.48049355 0 0 Z " fill="#323232" transform="translate(152,226)"/>
</svg>
